<?xml version="1.0" standalone="no"?>
<!DOCTYPE svg PUBLIC "-//W3C//DTD SVG 20010904//EN"
 "http://www.w3.org/TR/2001/REC-SVG-20010904/DTD/svg10.dtd">
<svg version="1.0" xmlns="http://www.w3.org/2000/svg"
 width="399.000000pt" height="399.000000pt" viewBox="0 0 399.000000 399.000000"
 preserveAspectRatio="xMidYMid meet">
<metadata>
Created by potrace 1.11, written by Peter Selinger 2001-2013
</metadata>
<g transform="translate(0.000000,399.000000) scale(0.100000,-0.100000)"
fill="#000000" stroke="none">
<path d="M3888 3943 c-10 -2 -27 -33 -43 -76 -45 -123 -44 -121 -104 -127 -40
-4 -58 -12 -72 -29 -49 -60 -10 -142 69 -145 52 -1 69 15 88 83 26 92 45 145
56 158 6 7 32 13 59 13 37 0 49 4 49 15 0 11 -11 15 -40 15 -28 0 -43 5 -47
16 -8 21 13 34 55 34 25 0 32 4 32 20 0 15 -7 20 -29 20 -16 0 -35 2 -43 4 -7
2 -21 2 -30 -1z m-158 -243 c0 -11 -4 -20 -9 -20 -14 0 -23 18 -16 30 10 17
25 11 25 -10z"/>
<path d="M3960 3640 c-24 -24 -27 -82 -4 -104 27 -28 34 -18 34 54 0 39 -2 70
-5 70 -3 0 -14 -9 -25 -20z"/>
<path d="M1927 3588 c-6 -4 -43 -8 -80 -8 -81 0 -357 -67 -515 -124 -80 -30
-227 -108 -272 -147 -63 -51 -167 -155 -225 -224 -38 -44 -69 -67 -134 -100
-103 -51 -142 -91 -202 -200 -23 -42 -30 -51 -103 -130 -49 -53 -106 -179
-128 -286 -14 -68 -14 -257 0 -329 29 -151 99 -297 176 -368 31 -28 56 -54 56
-59 0 -5 -15 -17 -34 -27 -47 -25 -123 -102 -147 -148 -24 -46 -43 -169 -35
-222 8 -50 63 -135 111 -171 19 -15 35 -32 36 -39 1 -19 90 -140 151 -204 22
-24 77 -69 122 -100 141 -99 202 -121 363 -131 67 -4 125 -10 128 -13 6 -6 -5
-132 -26 -298 -21 -167 -19 -180 36 -180 24 0 35 5 39 18 4 10 17 116 30 236
13 120 29 223 35 229 7 7 26 17 44 23 24 8 32 17 32 35 l0 24 -155 6 c-297 12
-459 78 -610 250 -65 73 -74 90 -82 144 -2 11 -28 36 -61 58 -31 21 -70 55
-85 75 -23 30 -27 45 -27 101 1 113 52 192 159 248 30 15 74 27 110 30 69 6
84 15 103 60 7 18 24 40 38 49 42 28 51 8 58 -121 4 -93 10 -125 31 -170 52
-114 169 -196 351 -246 128 -35 249 -25 214 17 -6 8 -20 14 -30 14 -33 0 -250
70 -307 99 -103 53 -167 144 -174 248 -3 47 -3 47 42 71 211 113 280 185 341
358 30 83 38 306 15 423 -38 201 -209 433 -347 468 -40 11 -49 36 -22 65 25
28 87 58 120 58 41 0 126 -62 173 -125 41 -55 66 -68 77 -39 8 21 -8 52 -60
117 -37 45 -43 58 -34 70 24 29 231 160 330 208 56 27 142 60 191 74 81 23
104 25 293 25 112 0 247 -5 301 -11 159 -17 364 -92 503 -181 217 -141 458
-456 543 -708 18 -54 42 -173 51 -255 4 -33 18 -98 32 -145 31 -105 42 -271
23 -351 -23 -100 -75 -183 -165 -263 -76 -68 -225 -179 -324 -240 -60 -38 -44
-54 42 -39 80 13 153 49 242 115 72 55 205 184 205 199 0 14 27 11 33 -3 8
-23 -11 -57 -42 -73 -19 -9 -31 -23 -31 -35 0 -32 52 -26 93 10 48 41 54 81
22 138 -30 54 -31 63 -6 93 l19 24 49 -41 c69 -59 93 -98 93 -153 0 -53 -24
-109 -69 -165 -26 -32 -31 -47 -31 -90 0 -59 -35 -158 -77 -218 -36 -53 -142
-134 -220 -169 -70 -32 -188 -63 -209 -55 -7 3 -20 22 -29 43 -16 38 -33 55
-47 47 -15 -9 -8 -87 27 -298 19 -116 38 -238 42 -271 l8 -60 45 0 45 0 -3 40
c-1 22 -7 67 -12 100 -5 33 -14 94 -21 135 -6 41 -12 95 -13 120 l-1 44 120
46 c240 90 367 207 411 377 8 30 14 68 14 84 0 18 14 52 34 83 56 83 76 135
76 199 0 100 -41 160 -172 249 l-55 37 -1 96 c-2 103 -5 96 67 153 23 17 48
56 74 111 l39 83 -4 152 c-6 184 -31 289 -97 406 -49 87 -151 199 -208 229
-12 6 -36 40 -53 75 -27 58 -51 93 -122 179 -42 51 -158 117 -205 117 -9 0
-39 17 -67 38 -28 21 -69 49 -91 62 -41 25 -272 140 -282 140 -3 0 -19 7 -36
15 -121 55 -183 69 -387 87 -160 14 -267 16 -283 6z m307 -88 c131 -16 234
-38 291 -65 28 -13 77 -35 110 -50 107 -48 198 -97 282 -151 113 -75 216 -184
173 -184 -6 0 -36 24 -68 53 -82 76 -285 206 -362 232 -197 68 -533 121 -680
109 -210 -17 -500 -95 -655 -175 -118 -61 -138 -74 -252 -171 -105 -88 -130
-100 -152 -74 -9 11 2 28 56 86 92 99 190 175 283 221 71 34 267 102 415 144
158 44 328 51 559 25z m-954 -370 c0 -5 -5 -10 -11 -10 -5 0 -7 5 -4 10 3 6 8
10 11 10 2 0 4 -4 4 -10z m-114 -85 c-11 -8 -22 -12 -25 -9 -6 6 19 24 34 24
6 -1 1 -7 -9 -15z m2014 -77 c22 -24 26 -48 8 -48 -17 1 -51 48 -43 60 9 14
12 13 35 -12z m120 -17 c-1 -13 -3 -13 -15 3 -19 26 -19 42 0 26 8 -7 15 -20
15 -29z m-2422 -4 c9 -10 8 -19 -2 -33 -7 -10 -31 -53 -53 -94 -67 -126 -90
-164 -105 -174 -21 -13 -68 1 -68 20 0 17 124 249 148 277 18 20 65 23 80 4z
m2586 -186 c36 -31 127 -162 147 -214 40 -99 50 -152 56 -292 5 -127 3 -145
-16 -197 -22 -56 -54 -100 -46 -61 2 10 8 30 14 45 6 15 13 74 17 130 7 113
-9 203 -66 359 -27 74 -90 180 -124 209 -10 7 -21 21 -27 31 -8 15 -6 17 8 12
10 -3 26 -13 37 -22z m-2924 -101 c-12 -22 -87 -76 -95 -68 -7 7 81 88 95 88
7 0 7 -6 0 -20z m358 -24 c17 -18 47 -65 68 -102 20 -38 40 -73 44 -79 3 -5
15 -38 25 -72 26 -89 17 -250 -19 -357 -32 -93 -57 -135 -119 -198 -48 -48
-55 -52 -119 -63 -21 -3 -44 -13 -52 -21 -31 -31 -131 -16 -212 31 -48 28 -60
51 -18 35 34 -13 130 -13 196 1 109 23 198 101 238 211 19 52 23 84 24 193 1
155 -14 215 -74 290 -76 96 -73 88 -54 129 10 20 23 36 29 36 7 0 26 -15 43
-34z m-182 -92 c47 -31 87 -75 117 -129 20 -36 22 -54 22 -180 0 -125 -3 -146
-23 -191 -43 -94 -122 -144 -229 -144 -86 0 -132 18 -188 75 -61 61 -85 127
-85 237 0 93 19 158 69 235 32 49 49 65 93 86 75 35 77 35 134 36 39 1 60 -5
90 -25z"/>
<path d="M2729 2053 c-50 -12 -16 -85 58 -126 130 -70 313 -27 313 74 0 44
-25 47 -66 8 -33 -32 -39 -34 -104 -33 -57 0 -75 5 -107 27 -21 15 -47 33 -58
40 -11 8 -27 12 -36 10z"/>
<path d="M1657 2033 c-27 -26 19 -74 109 -114 65 -29 212 -33 261 -6 60 32 90
91 59 116 -11 9 -24 5 -60 -20 -43 -31 -50 -32 -127 -30 -81 2 -157 24 -173
50 -8 12 -58 15 -69 4z"/>
<path d="M2420 2010 c0 -5 18 -20 40 -32 21 -13 44 -33 50 -46 11 -25 14 -170
4 -197 -4 -9 -25 -25 -47 -37 -59 -29 -133 -21 -187 22 -44 35 -70 34 -70 -3
0 -81 189 -129 288 -72 39 22 44 23 77 9 19 -7 48 -14 65 -14 54 0 116 83 79
106 -6 3 -24 -8 -39 -25 -33 -36 -31 -35 -74 -17 l-34 14 -4 114 c-3 85 -1
117 9 129 18 21 16 46 -3 53 -26 10 -154 7 -154 -4z"/>
<path d="M0 1991 c0 -6 5 -13 11 -16 6 -4 8 -13 5 -20 -6 -15 3 -27 15 -19 5
3 2 18 -6 35 -16 29 -25 37 -25 20z"/>
<path d="M640 1459 c-25 -9 -60 -55 -60 -79 0 -47 78 -130 123 -130 30 0 33
31 5 54 -35 29 -61 73 -54 91 3 10 19 15 46 15 33 0 40 3 40 19 0 12 -11 23
-31 30 -36 13 -35 13 -69 0z"/>
</g>
</svg>
